<?xml version='1.0' encoding='UTF-8'?>
<svg xmlns="http://www.w3.org/2000/svg" font-family="ConsolasFallback,Consolas,monospace" width="985px" height="530px" font-size="16px">
<style>
@font-face {
src: local('Consolas'), local('Consolas Bold');
font-family: 'ConsolasFallback';
font-display: swap;
-webkit-size-adjust: 109%;
size-adjust: 109%;
}
.key {fill: #ffa657;}
.value {fill: #a5d6ff;}
.addColor {fill: #3fb950;}
.delColor {fill: #f85149;}
.cc {fill: #616e7f;}
text, tspan {white-space: pre;}
</style>
<rect width="985px" height="530px" fill="#161b22" rx="15"/>
<g transform="translate(5, 124)">
<path style="fill:#0b0909; stroke:none;" d="M0 0L0 282L30 282C33.9334 282 39.9781 283.122 43.6065 281.397C46.8816 279.839 47.7179 274.8 49.6451 272C53.3067 266.679 58.1052 261.496 63 257.3C72.5463 249.116 84.0781 244.612 95 238.691C101.695 235.062 107.784 230.657 114 226.297C123.994 219.288 146.423 225.232 148.699 210C149.341 205.702 149.627 199.885 147.142 196.104C142.908 189.664 134.13 186.425 129.239 179.999C119.84 167.651 116.755 154.832 114 140C119.959 139.984 126.514 139.556 130.026 133.906C131.858 130.959 132.47 127.213 133.71 124C134.776 121.237 137.563 117.464 135.918 114.455C130.21 104.01 117.279 106.086 108 108C107.722 101.53 106.029 95.369 105.132 89C104.755 86.3218 105.554 83.6404 104.91 81C103.127 73.6888 95.6329 64.3961 105 60L99 51C100.873 51.1664 102.196 51.4454 104 52C103.49 47.8246 104.739 44.1414 105 40C106.417 43.905 107.235 46.9132 111 49C112.244 43.5806 117.01 33.8995 122.019 31.1281C130.463 26.4564 143.696 30.5383 144 18L150 17L150 22L154 21C156.545 23.7546 159.591 21.3344 163 21.5964C169.403 22.0887 174.441 26.6597 181 27L179 28C180.377 28.9114 181.44 29.4038 183 30C187.077 23.2141 195.182 27.5347 201 29C203.101 28.0465 203.283 28.3725 205 30C209.554 29.4779 211.807 29.4912 215 33C217.32 31.5498 219.68 31.4215 221.667 34C224.011 37.0422 222.117 40.8884 223.5 44C225.905 49.4122 236 51.6398 236 58C241.223 61.7118 246.614 67.7553 248.631 74.0008C249.572 76.9149 249.45 80.0556 250.387 82.9853C251.197 85.5154 252.91 87.6416 253.668 90.169C255.154 95.123 254.327 99.22 257 104L251 104C251.229 115.09 251.004 125.233 247.536 136C243.647 148.077 235.158 159.387 233.301 172C232.345 178.495 234.035 184.709 235.424 191C236.846 197.437 237.78 207.607 242.649 212.486C244.906 214.748 248.126 214.734 251 215.623C254.726 216.775 258.514 218.627 262 220.37C268.198 223.469 274.889 229.053 282 229C284.497 232.813 289.034 234.097 293 236.105C301.752 240.536 310.741 244.763 319 250.09C326.139 254.693 333.121 260.947 337.906 268C340.2 271.382 341.501 278.625 344.589 280.972C346.926 282.749 351.258 282 354 282L379 282L379 0L0 0z"/>
<path style="fill:#f4e3d9; stroke:none;" d="M7 2L8 3L7 2M156 12L157 13L156 12z"/>
<path style="fill:#655553; stroke:none;" d="M144 18C143.609 30.0195 130.253 26.5831 122.019 30.5833C116.736 33.1502 111.736 43.3801 111 49C107.742 46.4178 106.46 44.1354 106 40C103.874 44.1688 102.843 47.7259 105 52L100 50C100.531 54.2296 101.949 57.0309 105 60C103.122 60.6087 100.451 61.086 99.811 63.3032C98.5653 67.6202 102.24 75.017 103.712 79C104.862 82.1118 104.101 84.8697 104.681 88C105.335 91.5251 107.482 94.3819 108 98C109.871 93.5293 108.48 88.0127 106 84C109.857 81.8627 113.72 78.7938 116 75C112.517 75.5876 111.353 76.7629 110 80C108.387 77.348 105.453 73.8623 105.064 70.7145C104.729 68.007 106.738 65.6033 108.041 63.4244C112.277 56.3382 113.246 54.0067 122 54C119.686 52.4089 117.81 52.1425 115 52C117.106 51.3562 118.795 51.0941 121 51C120.101 48.8764 120.124 48.8993 118 48C120.106 47.3562 121.795 47.0941 124 47C121.017 45.501 118.287 45.7273 115 46C115.986 44.5215 116 44.7968 116 43C119.69 43.8784 124.276 45.1172 127 42L121 43C122.846 42.0874 123.795 41.5987 125 40C129.061 40.8825 132.125 40.4485 136 39L136 37C133.894 36.3562 132.205 36.0941 130 36C131.036 34.8137 131.339 34.3964 132 33C137.053 35.7923 140.261 36.4048 146 36L146 31C150.567 31.0811 155.548 30.1103 160 30.5718C166.817 31.2784 174.136 34.5841 181 36C184.209 33.0189 193.843 32.4889 198 33.892C201.366 35.0282 203.337 36.9224 207 37C206.014 38.4785 206 38.2032 206 40C209.417 42.2548 211.872 44.4804 214 48C215.088 45.7485 215.519 43.4653 216 41C213.623 40.428 211.442 40.1095 209 40C212.606 36.6779 215.582 38.1057 220 39C218.876 43.9987 222.226 46.1672 225 50C222.481 49.9211 220.462 50.3923 218 51C219.554 53.0999 220.378 53.133 223 53C224.164 55.1661 225.514 57.0338 227 59L230 58L234 74C235.327 70.8367 235 67.4144 235 64C237.474 68.4636 237.958 72.9436 238 78C244.101 78.1772 244.211 85.274 249 88C246.519 91.5418 244.882 101.108 251 101C247.414 85.9379 254.029 66.4835 236 58C234.881 51.4484 227.97 49.4463 224.85 43.9853C223.028 40.7971 223.858 36.3465 221.265 33.5687C219.29 31.4522 217.209 31.8493 215 33C212.416 28.7905 209.528 29.1747 205 30C203.695 27.92 202.819 27.0594 201 29C196.067 27.2529 185.331 22.0653 183 30L179 29L181 28C175.956 25.5121 169.595 22.3405 164 21.4861C160.358 20.9299 157.209 22.876 154 21L150 22C150.202 20.15 150.202 18.85 150 17L144 18z"/>
<path style="fill:#f4e3d9; stroke:none;" d="M234 18L235 19L234 18M103 20L104 21L103 20z"/>
<path style="fill:#996b5d; stroke:none;" d="M150 20L151 21L150 20z"/>
<path style="fill:#655553; stroke:none;" d="M164 20L165 21L164 20z"/>
<path style="fill:#f4e3d9; stroke:none;" d="M321 21L322 22L321 21M121 23L122 24L121 23z"/>
<path style="fill:#996b5d; stroke:none;" d="M143 24L144 25L143 24z"/>
<path style="fill:#0b0909; stroke:none;" d="M149 25C156.997 28.5988 166.21 30.9295 175 30C168.645 25.1543 156.784 25.0215 149 25M143 28L144 29L143 28M138 30C138.98 31.7833 138.908 31.5943 141 32C139.861 30.9846 139.388 30.6913 138 30M146 31L146 36C140.49 36.1186 137.047 34.9837 132 33C131.455 34.6352 131.635 34.4549 130 35C131.941 35.9509 133.898 36.4394 136 37L136 39C132.152 40.0709 128.975 40.5647 125 40C123.457 41.2667 122.952 41.4892 121 42C123.323 42.9215 124.581 42.6873 127 42C123.079 44.9672 118.022 42.0595 115 46L124 46C121.894 46.6438 120.205 46.9059 118 47L121 51L115 51C117.251 52.0885 119.535 52.5187 122 53C119.166 53.838 114.936 53.3282 112.51 55.0278C110.643 56.3358 110.054 58.9125 109.044 60.831C107.565 63.6398 104.686 66.5102 104.563 69.831C104.44 73.185 107.647 77.0313 109 80C111.62 77.422 113.281 75.5984 117 75C119.168 67.0467 124.226 66.3672 131 63.8272C143.577 59.1114 162.145 56.4808 175 61.1535C181.668 63.5774 186.404 68.8804 193 71L191 72C194.461 73.663 198.185 73.9213 202 74L204 80C202.521 79.0143 202.797 79 201 79C199.029 88.4894 207.323 91.9681 211.012 99.1736C212.236 101.564 211.991 104.399 212 107C216.238 107.036 219.717 107.145 223 110C218.964 109.251 215.101 109.003 211 109C212.751 110.255 213.857 110.614 216 111C215.108 115.803 213.302 122.109 219 124C219.802 120.632 219.99 117.455 220 114C225.678 112.386 233.095 105.965 239 106.647C242.372 107.037 245.304 110.166 248 112C248 104.321 245.137 94.9462 249 88C244.843 84.4879 244.107 77.7768 238 78C237.987 73.1309 237.567 68.629 236 64C234.673 67.1633 235 70.5856 235 74C232.544 68.9263 232.241 63.2082 230 58C228.203 58 228.479 58.0143 227 59C225.836 56.8339 224.486 54.9662 223 53C220.52 52.9837 219.725 52.767 218 51L225 50C223.033 45.9309 219.589 43.7957 220 39C215.869 37.7136 211.882 35.9258 209 40L216 41C215.428 43.3772 215.11 45.558 215 48C212.359 44.355 207.782 41.4546 207 37C203.49 36.7042 201.321 34.4155 197.996 33.527C195.014 32.73 191.999 33.7594 189 33.875C185.635 34.0047 183.164 33.1363 181 36C174.437 34.1558 166.691 31.0026 160.001 30.3434C155.526 29.9025 150.578 31.025 146 31z"/>
<path style="fill:#f4e3d9; stroke:none;" d="M29 31L30 32L29 31z"/>
<path style="fill:#0b0909; stroke:none;" d="M208 32L209 33L208 32z"/>
<path style="fill:#f4e3d9; stroke:none;" d="M87 33L88 34L87 33M339 33L340 34L339 33z"/>
<path style="fill:#996b5d; stroke:none;" d="M207.667 36.3333C207.222 36.7778 208.278 36.7222 208.333 36.6667C208.778 36.2222 207.722 36.2778 207.667 36.3333z"/>
<path style="fill:#01abab; stroke:none;" d="M107 46L108 47L107 46z"/>
<path style="fill:#f4e3d9; stroke:none;" d="M289 47L290 48L289 47z"/>
<path style="fill:#0b0909; stroke:none;" d="M110 50L111 51L110 50z"/>
<path style="fill:#01abab; stroke:none;" d="M99 51L100 52L99 51z"/>
<path style="fill:#996b5d; stroke:none;" d="M104 51L105 52L104 51M103 53L104 54L103 53z"/>
<path style="fill:#0b0909; stroke:none;" d="M104 53L105 54L104 53M106 55C107.223 56.1952 107.42 56.3164 109 57C108.02 55.2167 108.092 55.4057 106 55z"/>
<path style="fill:#655553; stroke:none;" d="M117 74C125.194 72.7943 129.444 66.6517 137 64.6134C141.212 63.4773 145.701 64.2394 150 63.8302C158.695 63.0028 167.248 62 176 62C171.812 58.8833 167.057 58.9783 162 59.0008C150.767 59.0506 139.583 60.6361 129 64.2037C122.928 66.2504 118.884 67.1025 117 74z"/>
<path style="fill:#996b5d; stroke:none;" d="M111 79C111.47 85.3145 109.132 91.6288 109 98L107 92C105.288 96.7746 107.604 102.981 108 108C111.083 107.584 114.006 106.842 117 106C115.752 105.315 115.452 105.251 114 105C117.657 103.919 121.199 104 125 104L122 101C131.758 98.6769 142.939 99.1482 153 98L152 95C158.227 94.9959 165.816 92.6364 171.83 94.5093C180.761 97.2904 187.241 102.992 197 103C194.582 103.722 192.528 103.948 190 104C196.006 106.52 205.368 106.157 212 107C210.902 104.879 210.189 103.363 210 101C207.379 98.5715 205.511 96.9413 202 96C202 98.6146 201.302 97.1733 199 97.6667C194.145 98.707 192.918 98.6083 189 95L193 95C192.532 92.7527 192.312 92.4262 194 91C193.339 89.6037 193.036 89.1863 192 88C193.485 85.9958 194.073 84.5142 192.994 81.9961C191.61 78.7658 188.704 76.4216 186.573 73.7145C183.213 69.445 181.027 63.104 174.961 62.1474C166.222 60.7693 156.723 63.3132 148 63.9105C143.29 64.233 138.494 63.4612 134.001 65.287C130.704 66.6267 128.629 69.2072 125.715 71.0702C121.147 73.9896 115.752 76.1854 111 79z"/>
<path style="fill:#655553; stroke:none;" d="M178 62C180.52 66.5718 183.93 71.4051 187.29 75.4244C190.732 79.5411 194.486 82.583 192 88L194 91C192.548 91.2512 192.248 91.3152 191 92C191.472 93.4161 191.814 93.8137 193 95L189 95C191.224 98.0629 202.141 101.235 202 96C205.11 97.2456 207.238 99.2464 210 101C210.027 103.58 210.229 104.138 212 106C211.998 103.488 212.37 100.554 211.13 98.2639C208.637 93.6617 203.939 91.1477 201.856 86C200.546 82.7614 200.445 80.7064 204 80L202 74L191 73C192.534 71.9774 192.402 72.1954 193 71C187.612 68.4297 183.683 63.9843 178 62z"/>
<path style="fill:#996b5d; stroke:none;" d="M101 63L102 64L101 63z"/>
<path style="fill:#f4e3d9; stroke:none;" d="M261 63L262 64L261 63M26 64L27 65L26 64M21 66L22 67L21 66M369 66L370 67L369 66M260 67L261 68L260 67M246 69L247 70L246 69M324 69L325 70L324 69M369 72L370 73L369 72z"/>
<path style="fill:#655553; stroke:none;" d="M226 73C227.248 73.6848 227.549 73.7488 229 74C227.752 73.3152 227.452 73.2512 226 73z"/>
<path style="fill:#f4e3d9; stroke:none;" d="M296 79L297 80L296 79z"/>
<path style="fill:#ba9890; stroke:none;" d="M110 80C109.044 84.0174 109 87.8866 109 92C110.703 88.413 111.377 83.9361 112 80L110 80z"/>
<path style="fill:#f4e3d9; stroke:none;" d="M351 81L352 82L351 81z"/>
<path style="fill:#ba9890; stroke:none;" d="M144 83C145.125 85.029 146.336 86.3428 148 88C145.261 87.7201 144.532 87.7304 143 90C147.853 90.8983 152.145 90.9254 157 90C153.915 87.6164 152.679 88.109 154 84C150.382 82.4967 147.843 82.3288 144 83z"/>
<path style="fill:#996b5d; stroke:none;" d="M106 84C107.221 85.9537 107.616 87.6312 108 90C108.985 87.6684 108.981 85.5434 109 83C107.203 83 107.479 83.0143 106 84z"/>
<path style="fill:#01abab; stroke:none;" d="M250 84L251 85L250 84z"/>
<path style="fill:#996b5d; stroke:none;" d="M250 85C250.283 90.394 249.454 95.7688 251 101L248 102C248.55 109.461 250 116.457 250 124C252.7 117.624 251.286 110.669 251 104L255 105L256 104C255.352 101.606 254.968 100.464 253 99C254.778 93.736 255.427 88.1195 250 85z"/>
<path style="fill:#0b0909; stroke:none;" d="M107.333 87.6667C107.278 87.7222 107.222 88.7778 107.667 88.3333C107.722 88.2777 107.778 87.2223 107.333 87.6667z"/>
<path style="fill:#f4e3d9; stroke:none;" d="M281 88L282 89L281 88M30 93L31 94L30 93z"/>
<path style="fill:#655553; stroke:none;" d="M152 95C152 96.7968 152.014 96.5215 153 98C147.872 98.1986 143.058 99.5017 138 99.9066C132.595 100.339 127.252 99.4476 122 101C123.139 102.015 123.612 102.309 125 103C121.343 104.081 117.801 104 114 104C117.174 105.902 120.509 105.727 124 106.722C127.212 107.638 129.961 109.679 133 111L130 107C133.46 109.103 134.645 112.719 138 115C141.812 111.686 143.514 114.487 146 118C147.098 115.387 146.993 112.835 147 110L136 110C139.417 108.108 142.549 106.776 146 109C148.036 105.488 149.641 101.982 153.289 99.7685C160.151 95.6055 177.178 96.4158 181 104L197 104C194.512 102.953 191.804 103.145 189.285 102.117C183.555 99.7758 177.007 94.9772 170.91 94.1335C164.674 93.2704 158.258 94.9827 152 95z"/>
<path style="fill:#ba9890; stroke:none;" d="M113 95C111.306 97.5417 112.071 97.5177 110 97L110 105C114.127 102.712 114.865 99.5384 115 95L113 95z"/>
<path style="fill:#0b0909; stroke:none;" d="M252 96L253 97L252 96z"/>
<path style="fill:#f4e3d9; stroke:none;" d="M254 96L255 97L254 96M330 96L331 97L330 96M263 97L264 98L263 97z"/>
<path style="fill:#0b0909; stroke:none;" d="M156 132C172.84 136.009 182.864 125.486 183 109C184.479 109.986 184.203 110 186 110C184.319 107.582 182.802 106.916 180 106C180.078 100.792 175.94 98.5252 171 98.0941C163.753 97.4618 153.353 96.4731 148.703 103.304C144.965 108.796 146.73 118.71 150.328 123.791C152.48 126.83 155.536 128.115 156 132z"/>
<path style="fill:#f4e3d9; stroke:none;" d="M253 98L254 99L253 98M364 98L365 99L364 98z"/>
<path style="fill:#655553; stroke:none;" d="M156 101C161.861 103.301 170.782 103.887 177 103C172.966 96.5993 162.073 98.9441 156 101z"/>
<path style="fill:#996b5d; stroke:none;" d="M177 99C178.33 100.753 179.247 101.67 181 103C179.846 100.751 179.249 100.154 177 99z"/>
<path style="fill:#f4e3d9; stroke:none;" d="M332 100L333 101L332 100M255 101L256 102L255 101z"/>
<path style="fill:#655553; stroke:none;" d="M248.333 103.667C248.278 103.722 248.222 104.778 248.667 104.333C248.722 104.278 248.778 103.222 248.333 103.667z"/>
<path style="fill:#f4e3d9; stroke:none;" d="M256 103L257 104L256 103z"/>
<path style="fill:#996b5d; stroke:none;" d="M180 105C181.543 106.267 182.048 106.489 184 107C182.752 106.315 182.452 106.251 181 106C182.478 105.014 182.203 105 184 105C182.191 104.426 181.931 104.535 180 105z"/>
<path style="fill:#f4e3d9; stroke:none;" d="M181 105C183.332 105.985 185.457 105.981 188 106L188 104L181 105z"/>
<path style="fill:#ba9890; stroke:none;" d="M188 104C192.129 108.798 205.925 107.983 212 108C205.085 103.851 195.715 105.432 188 104z"/>
<path style="fill:#655553; stroke:none;" d="M184 106L186 110L183 109L182 119C189.279 109.125 200.541 115.49 211 113C211.474 116.607 210.409 118.742 209 122L205 121C205.141 123.743 205.371 125.644 204 128C207.658 133.183 211.326 133.401 217 131L215 136L217 136L217 138C215.243 138.635 213.211 139.125 212.019 140.702C210.542 142.654 211.002 145.524 208.682 146.933C206.392 148.324 202.603 147.434 200 148C196.766 144.462 193.04 148.872 189.015 148.469C185.994 148.166 184.369 145.42 181.83 144.139C176.303 141.35 172.728 141.372 170 135C176.524 134.642 177.53 131.865 179 126C171.23 131.134 166.57 134.278 157 132L158 137C148.419 137 137.725 136.46 129 141L130 135C127.344 136.455 124.832 137.931 122 139L122 144L126 144C124.948 147.382 121.662 155.463 118 156C117.368 165.595 127.347 180.267 134.174 186.535C137.73 189.802 142.319 191.775 145.736 195.171C151.047 200.448 147.583 207.171 151.514 212.285C153.868 215.348 157.564 216.433 160.546 218.629C164.658 221.657 168.063 225.964 172.259 228.755C177.13 231.994 182.542 232.504 187.576 235.085C193.77 238.261 200.589 242.95 207.996 241.127C212.72 239.965 215.56 235.062 219 232L221 241C226.814 240.075 227.936 236.407 228 231L233 231C233.131 225.589 234.203 221.917 240 221C240.423 218.4 240.936 216.822 239 215C243.863 211.732 238.319 203.01 237.194 198C235.63 191.032 231.934 183.098 232 176C232.038 171.977 234.622 168.835 235.528 165C236.06 162.749 234.713 161.231 234.917 159.139C235.14 156.844 236.545 154.342 237 152C238.023 153.534 237.805 153.402 239 154C240.743 152.372 241.383 151.303 242 149C236.139 148.188 229.33 152.145 228 144L232 143C227.969 137.163 233.046 136.449 236 132L237 136C243.41 131.86 240.367 124.688 234 123L235 126L231 125C231.545 123.365 231.365 123.545 233 123L232 120L236 119L236 114C240.63 116.62 242.284 119.413 248 119L247 127C242.756 127.561 241.832 134.229 241 138C243.962 135.414 245.086 132.802 246 129C246.508 134.88 242.744 139.313 242 145C245.804 142.479 246.267 139.373 247.437 135.17C249.978 126.036 250.748 117.416 249 108C247.757 111.047 248.409 113.807 249 117C246.272 113.302 243.38 107.949 238.015 108.337C232.385 108.744 230.511 117.22 225 112C226.878 111.824 228.199 111.562 230 111C226.166 110.463 223.39 112.481 220 114C219.972 117.422 219.625 120.637 219 124C213.732 121.095 215.348 116.159 216 111L211 110C212.478 109.014 212.203 109 214 109C205.819 105.566 192.877 106.001 184 106M236 106C237.769 106.779 239.036 106.912 241 107C239.231 106.221 237.964 106.088 236 106z"/>
<path style="fill:#996b5d; stroke:none;" d="M259 106L260 107L259 106z"/>
<path style="fill:#0b0909; stroke:none;" d="M130 107C131.33 108.753 132.247 109.67 134 111C133.146 108.475 132.492 107.97 130 107M142 107C143.506 107.683 144.315 107.826 146 108C144.494 107.317 143.685 107.174 142 107z"/>
<path style="fill:#f4e3d9; stroke:none;" d="M212 107C213.248 107.685 213.548 107.749 215 108C213.752 107.315 213.452 107.251 212 107z"/>
<path style="fill:#ba9890; stroke:none;" d="M214 108C215.506 108.683 216.315 108.826 218 109C216.19 107.76 216.223 107.816 214 108z"/>
<path style="fill:#996b5d; stroke:none;" d="M217 107C218.248 107.685 218.548 107.749 220 108C218.752 107.315 218.452 107.251 217 107z"/>
<path style="fill:#ba9890; stroke:none;" d="M230 112C234.95 110.547 237.516 108.114 243 109C238.431 105.539 232.847 107.226 230 112z"/>
<path style="fill:#655553; stroke:none;" d="M242 107L243 108L242 107M103 115C101.977 113.466 102.195 113.598 101 113C100.012 115.829 99.086 117.856 97 120C98.506 120.683 99.3148 120.826 101 121L101 115C101.81 117.729 101.979 120.15 102 123L113 125C110.805 116.517 110.606 111.598 120 109C113.768 106.697 104.239 107.54 103 115z"/>
<path style="fill:#ba9890; stroke:none;" d="M136 109C139.36 110.047 143.412 109.576 147 110C143.616 107.436 139.954 107.832 136 109z"/>
<path style="fill:#f4e3d9; stroke:none;" d="M218 108C219.506 108.683 220.315 108.826 222 109C220.494 108.317 219.685 108.174 218 108z"/>
<path style="fill:#ba9890; stroke:none;" d="M222 108L223 109L222 108z"/>
<path style="fill:#655553; stroke:none;" d="M232 108L233 109L232 108z"/>
<path style="fill:#996b5d; stroke:none;" d="M243 108C244.33 111.21 246.158 114.05 248 117C249.072 112.903 246.112 110.319 243 108M139 109C140.769 109.779 142.036 109.912 144 110C142.231 109.221 140.964 109.088 139 109z"/>
<path style="fill:#655553; stroke:none;" d="M220 109C221.248 109.685 221.549 109.749 223 110C221.752 109.315 221.452 109.251 220 109M231 109L232 110L231 109z"/>
<path style="fill:#f4e3d9; stroke:none;" d="M256 110L257 111L256 110z"/>
<path style="fill:#0b0909; stroke:none;" d="M104 111L105 112L104 111z"/>
<path style="fill:#996b5d; stroke:none;" d="M132 111L133 112L132 111z"/>
<path style="fill:#f4e3d9; stroke:none;" d="M133 111L134 112L133 111z"/>
<path style="fill:#996b5d; stroke:none;" d="M225 112C226.912 114.921 228.696 114.69 232 114L232 112C229.591 111.728 227.419 111.799 225 112z"/>
<path style="fill:#ba9890; stroke:none;" d="M133 112L134 113L133 112z"/>
<path style="fill:#996b5d; stroke:none;" d="M137 117C148.617 114.033 144.982 131.536 137.985 134.954C135.194 136.317 132.638 135.008 130 134L129 141C138.459 137.376 147.968 137 158 137C156.683 130.505 150.743 124.672 147.29 118.986C146.031 116.913 144.31 113.483 141.769 112.752C138.983 111.949 137.811 115.062 137 117M170 135C171.855 142.055 176.336 141.772 181.83 144.851C184.33 146.252 185.935 148.567 189.015 148.747C193.207 148.992 196.137 145.634 200 148C202.691 147.699 207.156 148.683 209.397 146.968C211.125 145.647 210.875 143.12 212.019 141.419C213.18 139.692 215.225 138.913 217 138C216.232 136.686 216.314 136.768 215 136L217 131C211.053 132.839 209.109 132.057 204 129C205.781 126.238 205.375 124.221 205 121L209 122C210.996 118.763 211.916 116.761 211 113C203.598 114.374 191.772 110.228 185.418 114.318C177.11 119.665 181.69 133.694 170 135z"/>
<path style="fill:#f4e3d9; stroke:none;" d="M90 114L91 115L90 114z"/>
<path style="fill:#996b5d; stroke:none;" d="M236 114L236 119L232 120L232 122C238.466 124.945 243.647 129.514 237 136L237 132C232.447 135.104 226.902 137.575 232 143L228 144C228.665 152.34 236.033 148.903 242 149C242.89 147.255 243.453 145.875 244 144C242.339 144.208 242.46 144.495 242 143C238.005 145.696 234.859 148.228 230 149L230 145C235.335 144.705 237.648 141.636 242 139C241.358 135.149 243.118 129.602 246 126L247 127L248 119C242.398 119.142 240.839 115.812 236 114z"/>
<path style="fill:#f4e3d9; stroke:none;" d="M330 114L331 115L330 114z"/>
<path style="fill:#ba9890; stroke:none;" d="M132 136C139.697 135.909 143.007 132.574 144.245 125C144.634 122.615 145.329 119.604 143.817 117.449C140.497 112.718 135.809 118.946 134.549 122.004C133.886 123.61 133.344 125.327 132.877 127C132.042 129.99 132.009 132.921 132 136z"/>
<path style="fill:#996b5d; stroke:none;" d="M222 133C223.179 133.055 224.797 133.334 225.986 133.106C233.263 131.715 226.689 122.362 226 118C220.269 120.304 222.118 127.721 222 133z"/>
<path style="fill:#655553; stroke:none;" d="M135 119L136 120L135 119M148.333 120.667C148.278 120.722 148.222 121.778 148.667 121.333C148.722 121.278 148.778 120.222 148.333 120.667M149.333 122.667C149.278 122.722 149.222 123.778 149.667 123.333C149.722 123.278 149.778 122.222 149.333 122.667M133 123L133 126C133.696 124.446 133.696 124.554 133 123z"/>
<path style="fill:#0b0909; stroke:none;" d="M231 123C232.226 125.035 232.703 125.326 235 126C233.774 123.965 233.297 123.674 231 123z"/>
<path style="fill:#f4e3d9; stroke:none;" d="M314 124L315 125L314 124z"/>
<path style="fill:#655553; stroke:none;" d="M101 128C102.195 127.402 101.977 127.534 103 126C104.737 131.847 108.157 136.012 114 138L114 127C109.429 126.601 103.957 123.492 101 128M152 126C153.117 128.933 153.853 129.858 157 130C155.394 128.086 154.217 127.163 152 126z"/>
<path style="fill:#996b5d; stroke:none;" d="M249.333 127.667C249.278 127.722 249.222 128.778 249.667 128.333C249.722 128.278 249.778 127.222 249.333 127.667z"/>
<path style="fill:#655553; stroke:none;" d="M131 129L131 134C131.83 131.97 131.83 131.03 131 129z"/>
<path style="fill:#996b5d; stroke:none;" d="M246 129L243 137C245.997 135.111 247.04 132.435 246 129M247 133L247 137C247.71 135.24 247.71 134.76 247 133z"/>
<path style="fill:#f4e3d9; stroke:none;" d="M281 133L282 134L281 133M273 135L274 136L273 135z"/>
<path style="fill:#996b5d; stroke:none;" d="M161 136C159.406 141.298 156.071 144.028 156 150C159.113 149.991 166.088 150.779 167.137 146.721C167.838 144.011 166.084 139.898 166 137L161 136M108 137L109 138L108 137z"/>
<path style="fill:#ba9890; stroke:none;" d="M230 141C233.494 140.446 235.596 139.605 238 137C234.81 137.668 232.032 138.396 230 141M242 137C238.649 140.939 235.293 144.405 230 145L230 149C237.584 148.312 241.834 143.654 245 137L242 137z"/>
<path style="fill:#0b0909; stroke:none;" d="M146 141C149.048 140.723 151.12 140.474 153 138C149.83 138.173 147.864 138.356 146 141M245 138L246 139L245 138z"/>
<path style="fill:#655553; stroke:none;" d="M112.667 139.333C112.222 139.778 113.278 139.722 113.333 139.667C113.778 139.222 112.722 139.278 112.667 139.333z"/>
<path style="fill:#996b5d; stroke:none;" d="M114 140C116.052 140.874 117.747 140.953 120 141L119 145L116 144C116.108 148.932 115.987 153.075 117 158C118.819 156.636 118.031 156.508 120 157C121.965 152.589 124.914 148.723 126 144L122 144L122 140L114 140z"/>
<path style="fill:#ba9890; stroke:none;" d="M114 141C114.501 143.686 114.883 146.27 115 149C116.144 147.082 116.174 146.268 116 144C117.479 144.986 117.203 145 119 145L120 141L114 141z"/>
<path style="fill:#f4e3d9; stroke:none;" d="M306 141L307 142L306 141z"/>
<path style="fill:#0b0909; stroke:none;" d="M132 142C132.578 144.697 133.261 144.789 136 145C134.771 143.13 134.132 142.776 132 142z"/>
<path style="fill:#f4e3d9; stroke:none;" d="M359 145L360 146L359 145z"/>
<path style="fill:#0b0909; stroke:none;" d="M175 146C174.798 148.824 173.654 151.253 173 154C159.302 154 145.878 157.429 133 162C131.554 159.717 130.689 159.418 128 159C128.7 162.356 130.03 165.05 134.015 164.794C138.015 164.538 141.122 161.23 145 160.329C156.681 157.615 168.402 156.101 180 153C179.695 149.044 178.768 147.384 175 146z"/>
<path style="fill:#f4e3d9; stroke:none;" d="M276 147L277 148L276 147z"/>
<path style="fill:#0b0909; stroke:none;" d="M233 152L232 158C234.452 156.388 235.151 154.807 236 152L233 152z"/>
<path style="fill:#996b5d; stroke:none;" d="M237 152L234 161C238.395 159.629 240.004 156.337 241 152C239.258 152.584 238.742 152.584 237 152M168 157C168.782 164.844 154.332 173.663 147.039 172.643C143.418 172.136 136.197 164.258 133.607 170.164C131.706 174.5 134.109 181.174 139.019 181.837C144.47 182.573 148.98 179.182 154.09 178.26C162.6 176.724 172.11 179.436 179.566 173.102C183.123 170.081 183.017 158.588 178.683 156.117C175.822 154.486 170.994 156.419 168 157z"/>
<path style="fill:#655553; stroke:none;" d="M152.667 158.333C152.222 158.778 153.278 158.722 153.333 158.667C153.778 158.222 152.722 158.278 152.667 158.333z"/>
<path style="fill:#996b5d; stroke:none;" d="M139 165C147.176 165 154.329 164.66 160 158C154.464 158.068 140.765 158.966 139 165z"/>
<path style="fill:#655553; stroke:none;" d="M143 160C144.248 160.685 144.548 160.749 146 161C144.752 160.315 144.452 160.251 143 160M140.667 161.333C140.222 161.778 141.278 161.722 141.333 161.667C141.778 161.222 140.722 161.278 140.667 161.333z"/>
<path style="fill:#f4e3d9; stroke:none;" d="M72 162L73 163L72 162M9 165L10 166L9 165M35 166L36 167L35 166M68 166L69 167L68 166z"/>
<path style="fill:#996b5d; stroke:none;" d="M121.333 166.667C121.278 166.722 121.222 167.778 121.667 167.333C121.722 167.278 121.778 166.222 121.333 166.667z"/>
<path style="fill:#0b0909; stroke:none;" d="M144 169C148.709 170.976 155.427 170.908 158 166C153.058 166.105 148.604 167.238 144 169z"/>
<path style="fill:#f4e3d9; stroke:none;" d="M48 168L49 169L48 168z"/>
<path style="fill:#996b5d; stroke:none;" d="M122 169L123 170L122 169M123.333 170.667C123.278 170.722 123.222 171.778 123.667 171.333C123.722 171.278 123.778 170.222 123.333 170.667z"/>
<path style="fill:#f4e3d9; stroke:none;" d="M331 170L332 171L331 170z"/>
<path style="fill:#996b5d; stroke:none;" d="M232 171L232 181C233.346 177.793 233.346 174.207 232 171z"/>
<path style="fill:#f4e3d9; stroke:none;" d="M76 173L77 174L76 173z"/>
<path style="fill:#996b5d; stroke:none;" d="M126 176L127 177L126 176M128 179L129 180L128 179z"/>
<path style="fill:#f4e3d9; stroke:none;" d="M276 180L277 181L276 180z"/>
<path style="fill:#996b5d; stroke:none;" d="M233 182L233 185C233.696 183.446 233.696 183.554 233 182z"/>
<path style="fill:#f4e3d9; stroke:none;" d="M20 196L21 197L20 196z"/>
<path style="fill:#996b5d; stroke:none;" d="M149 199C149 206.969 149.648 225.512 138 224C145.694 233.625 154.681 237.404 165.83 241.383C168.992 242.512 171.703 244.461 175.001 245.295C187.501 248.455 201.209 248.149 214 247.996C220.374 247.92 225.144 245.771 231 243.644C234.449 242.392 238.196 241.879 240.895 239.15C246.169 233.817 247.98 226.181 248 219C247.015 221.332 247.019 223.457 247 226L245 217L253 218C249.772 215.551 245.959 216.022 243 213L239 214C240.124 216.469 240.174 218.295 240 221C233.648 221.491 233.052 225.293 233 231L228 231C227.833 236.206 226.214 239.522 221 241C220.883 237.848 219.759 235.074 219 232C214.723 234.598 212.197 239.8 206.999 240.873C199.679 242.383 193.749 237.623 187.576 234.63C182.771 232.302 177.798 231.702 173.115 228.755C168.859 226.076 165.321 221.732 161.29 218.629C158.105 216.176 153.972 214.951 151.514 211.544C148.899 207.92 150.665 202.967 149 199z"/>
<path style="fill:#f4e3d9; stroke:none;" d="M7 200L8 201L7 200M253 200L254 201L253 200M300 201L301 202L300 201z"/>
<path style="fill:#996b5d; stroke:none;" d="M239.333 206.667C239.278 206.722 239.222 207.778 239.667 207.333C239.722 207.278 239.778 206.222 239.333 206.667z"/>
<path style="fill:#f4e3d9; stroke:none;" d="M286 209L287 210L286 209z"/>
<path style="fill:#ba9890; stroke:none;" d="M241 211L242 212L241 211z"/>
<path style="fill:#f4e3d9; stroke:none;" d="M325 212L326 213L325 212M6 213L7 214L6 213z"/>
<path style="fill:#ba9890; stroke:none;" d="M243 214C245.804 216.125 248.533 215.989 252 216C249.171 214.729 246.084 214.392 243 214z"/>
<path style="fill:#f4e3d9; stroke:none;" d="M252 216C255.819 219.164 260.604 220.989 265 223.258C271.94 226.841 278.396 230.92 286 233L282 229C271.707 228.368 262.028 218.867 252 216z"/>
<path style="fill:#ba9890; stroke:none;" d="M146 217C143.966 219.59 142.276 221.969 141 225C144.899 223.869 147.723 221.214 146 217z"/>
<path style="fill:#655553; stroke:none;" d="M245 217C245.562 220.025 245.936 222.922 246 226C247.378 222.709 247.148 219.836 245 217z"/>
<path style="fill:#ee8851; stroke:none;" d="M247 217C248.467 220.022 250.337 221.959 253 224C253.986 222.521 254 222.797 254 221L256 221L259 227C259.685 225.752 259.749 225.452 260 224C262.952 226.862 264.76 230.085 266 234L276 236L276 240C281.028 240.934 285.9 241 291 241L290 244C293.923 244.081 298.219 244.324 301.741 246.263C303.697 247.34 305.041 249.263 307.129 250.133C311.159 251.811 314.97 250.934 318.961 253.433C323.603 256.34 327.011 260.686 332 263C329.87 272.053 336.442 274.544 340 282C341.232 278.874 340.641 275.36 341 272C336.401 267.595 332.751 262.315 327.961 258C316.747 247.899 301 238.644 286 236C287.534 234.977 287.402 235.195 288 234C276.647 229.342 266.252 222.748 255 218C254.014 219.479 254 219.203 254 221C251.673 219.162 249.852 217.795 247 217z"/>
<path style="fill:#f26b27; stroke:none;" d="M251 218L251 220L254 221L255 218L254 217L251 218z"/>
<path style="fill:#996b5d; stroke:none;" d="M136 222L144 220C140.668 218.617 137.994 218.924 136 222z"/>
<path style="fill:#0b0909; stroke:none;" d="M139 220L139 225C140.973 223.469 142.476 221.977 144 220L139 220z"/>
<path style="fill:#f26b27; stroke:none;" d="M248 220C247.853 226.884 244.745 236.343 238.671 240.351C235.744 242.283 232.204 242.753 229 244.03C213.12 250.362 193.641 248.959 177 245.522C171.795 244.448 167.152 241.516 162 240.102C156.287 238.534 150.622 235.28 146.17 231.424C143.898 229.456 141.561 226.434 139 229C135.213 229.077 132.583 231.111 129 232.201C121.377 234.519 112.757 236.248 105 238L105 241L98 240C100.284 246.52 106.666 248.242 113 249.384C125.686 251.672 138.121 252.628 151 251L151 253C146.874 253.174 143.113 253.679 139 253C139 253.333 139.606 254.781 138.667 254.833C133.704 255.109 128.158 253.072 123 253C112.032 252.848 101.046 250.46 90 250C88.0118 249.917 85.9764 249.027 84 249.333C80.6497 249.852 77.9663 253.439 75 255L76 257L70 258C68.9207 260.465 67.2755 262.347 67 265C63.9461 265.654 64.0642 267.007 64 270C62.1218 270.176 60.8006 270.438 59 271L59 273C61.2888 274.15 63.0193 275.361 65 277C59.1434 275.151 51.0402 269.631 47.6528 277.999C47.1366 279.274 47.1385 280.661 47 282C52.0766 276.214 55.8985 272.714 62 280C57.4349 278.881 53.1071 275.382 52 282L340 282C337.478 274.125 330.401 272.054 332 263C326.901 259.449 322.671 254.438 316.996 251.724C313.786 250.188 310.249 251.183 307.129 249.661C300.779 246.564 297.579 244.063 290 244C290.986 242.521 291 242.797 291 241C285.899 241 281.052 240.639 276 240L276 236C272.553 235.232 269.586 234.106 266 234C265.545 230.394 262.635 221.446 259 227L256 221L254 221L253 224C251.343 222.336 250.029 221.125 248 220z"/>
<path style="fill:#f4e3d9; stroke:none;" d="M133 221L134 222L133 221z"/>
<path style="fill:#ee8851; stroke:none;" d="M128 222C130.052 222.874 131.747 222.953 134 223C130.732 225.092 127.962 227.523 125 230L125 225L123 225L123 230C118.671 230.086 114.289 230.432 110 231L111 229C103.618 232.381 97.1316 237.875 89.9853 241.823C84.5455 244.828 78.248 246.083 73.0432 249.468C67.6334 252.987 62.7423 258.522 58 262.911C54.512 266.14 51.0489 268.643 49 273C54.6856 273.653 59.5049 275.945 65 277C63.104 274.819 61.7407 273.931 59 273L59 271L64 270C64.4176 267.311 64.7173 266.446 67 265C66.8981 262.147 69.6464 261.094 70 258C72.2049 257.906 73.8941 257.644 76 257L75 255C78.2149 253.784 80.7422 250.87 84.0185 250.065C96.1188 247.092 110.752 252.754 123 252.995C126.372 253.062 138.45 256.231 139 253C143.177 253.96 146.79 253.332 151 253L151 251C144.057 251.548 137.036 252.693 130.039 251.871C127.259 251.545 124.774 250.268 121.961 250.053C113.055 249.372 102.685 248.764 98 240C100.377 240.572 102.558 240.89 105 241L105 238C108.542 237.539 111.548 235.951 115 235.133C119.917 233.969 125.182 233.662 130 232.201C133.145 231.247 135.713 229.336 139 229C139.164 221.232 134.198 221.752 128 222z"/>
<path style="fill:#f4e3d9; stroke:none;" d="M87 222L88 223L87 222z"/>
<path style="fill:#996b5d; stroke:none;" d="M120 222L126 225C125.271 221.597 123.194 222.013 120 222z"/>
<path style="fill:#ba9890; stroke:none;" d="M126.667 222.333C126.222 222.778 127.278 222.722 127.333 222.667C127.778 222.222 126.722 222.278 126.667 222.333z"/>
<path style="fill:#655553; stroke:none;" d="M138.333 222.667C138.278 222.722 138.222 223.778 138.667 223.333C138.722 223.278 138.778 222.222 138.333 222.667z"/>
<path style="fill:#996b5d; stroke:none;" d="M262.667 222.333C262.222 222.778 263.278 222.722 263.333 222.667C263.778 222.222 262.722 222.278 262.667 222.333z"/>
<path style="fill:#ba9890; stroke:none;" d="M118.667 223.333C118.222 223.778 119.278 223.722 119.333 223.667C119.778 223.222 118.722 223.278 118.667 223.333z"/>
<path style="fill:#f26b27; stroke:none;" d="M110 230C114.106 231.624 118.693 230.184 123 230C123.308 227.637 123.83 226.075 125 224C118.828 222.497 114.745 226.496 110 230M125 230L134 224C128.335 221.627 125.317 224.269 125 230z"/>
<path style="fill:#655553; stroke:none;" d="M140 223L141 224L140 223z"/>
<path style="fill:#ee8851; stroke:none;" d="M116.667 224.333C116.222 224.778 117.278 224.722 117.333 224.667C117.778 224.222 116.722 224.278 116.667 224.333z"/>
<path style="fill:#f4e3d9; stroke:none;" d="M60 225L61 226L60 225z"/>
<path style="fill:#ba9890; stroke:none;" d="M111 229C113.357 227.896 114.376 227.044 116 225C113.643 226.104 112.624 226.956 111 229M106.667 231.333C106.222 231.778 107.278 231.722 107.333 231.667C107.778 231.222 106.722 231.278 106.667 231.333z"/>
<path style="fill:#f4e3d9; stroke:none;" d="M46 233L47 234L46 233z"/>
<path style="fill:#ba9890; stroke:none;" d="M286.667 233.333C286.222 233.778 287.278 233.722 287.333 233.667C287.778 233.222 286.722 233.278 286.667 233.333M288 234C290.466 236.036 292.929 237.113 296 238C293.534 235.964 291.071 234.887 288 234M100.667 235.333C100.222 235.778 101.278 235.722 101.333 235.667C101.778 235.222 100.722 235.278 100.667 235.333z"/>
<path style="fill:#f26b27; stroke:none;" d="M286 235C288.506 236.686 291.205 237.85 294 239C291.989 235.966 289.545 235.366 286 235z"/>
<path style="fill:#f4e3d9; stroke:none;" d="M292 235L293 236L292 235z"/>
<path style="fill:#ba9890; stroke:none;" d="M98.6667 236.333C98.2222 236.778 99.2778 236.722 99.3333 236.667C99.7778 236.222 98.7222 236.278 98.6667 236.333M97 237L98 238L97 237z"/>
<path style="fill:#f4e3d9; stroke:none;" d="M296.667 238.333C296.222 238.778 297.278 238.722 297.333 238.667C297.778 238.222 296.722 238.278 296.667 238.333z"/>
<path style="fill:#ba9890; stroke:none;" d="M93.6667 239.333C93.2222 239.778 94.2778 239.722 94.3333 239.667C94.7778 239.222 93.7222 239.278 93.6667 239.333z"/>
<path style="fill:#f4e3d9; stroke:none;" d="M298 239C299.458 240.081 300.248 240.436 302 241C300.457 239.733 299.952 239.511 298 239z"/>
<path style="fill:#ba9890; stroke:none;" d="M91.6667 240.333C91.2222 240.778 92.2778 240.722 92.3333 240.667C92.7778 240.222 91.7222 240.278 91.6667 240.333M89.6667 241.333C89.2222 241.778 90.2778 241.722 90.3333 241.667C90.7778 241.222 89.7222 241.278 89.6667 241.333z"/>
<path style="fill:#f4e3d9; stroke:none;" d="M302.667 241.333C302.222 241.778 303.278 241.722 303.333 241.667C303.778 241.222 302.722 241.278 302.667 241.333z"/>
<path style="fill:#ba9890; stroke:none;" d="M85 243C86.8092 243.574 87.0688 243.465 89 243C87.3407 242.594 86.7582 242.691 85 243z"/>
<path style="fill:#f4e3d9; stroke:none;" d="M304.667 242.333C304.222 242.778 305.278 242.722 305.333 242.667C305.778 242.222 304.722 242.278 304.667 242.333M306.667 243.333C306.222 243.778 307.278 243.722 307.333 243.667C307.778 243.222 306.722 243.278 306.667 243.333z"/>
<path style="fill:#ba9890; stroke:none;" d="M83.6667 244.333C83.2222 244.778 84.2778 244.722 84.3333 244.667C84.7778 244.222 83.7222 244.278 83.6667 244.333z"/>
<path style="fill:#f4e3d9; stroke:none;" d="M308 244C309.543 245.267 310.048 245.489 312 246C310.542 244.919 309.752 244.564 308 244z"/>
<path style="fill:#ba9890; stroke:none;" d="M81.6667 245.333C81.2222 245.778 82.2778 245.722 82.3333 245.667C82.7778 245.222 81.7222 245.278 81.6667 245.333M310 246C312.171 247.802 314.393 248.906 317 250C315.184 247.258 313.202 246.584 310 246z"/>
<path style="fill:#f4e3d9; stroke:none;" d="M317 249C318.223 250.195 318.42 250.316 320 251C318.777 249.805 318.58 249.684 317 249M320 251C323.167 255.142 327.259 258.802 332 261C328.846 256.56 325.036 253.132 320 251z"/>
<path style="fill:#ba9890; stroke:none;" d="M65 256C67.209 255.316 67.7034 254.92 69 253C67.0514 253.936 66.4498 254.392 65 256M55 266C58.9595 263.211 62.2105 259.96 65 256C60.424 258.134 57.1342 261.424 55 266M332 261C333.299 263.763 334.553 265.164 337 267C335.701 264.237 334.447 262.836 332 261M337 267L338 268L337 267M338.333 268.667C338.278 268.722 338.222 269.778 338.667 269.333C338.722 269.278 338.778 268.222 338.333 268.667M339.333 270.667C339.278 270.722 339.222 271.778 339.667 271.333C339.722 271.278 339.778 270.222 339.333 270.667z"/>
<path style="fill:#f4e3d9; stroke:none;" d="M345 270L346 271L345 270z"/>
<path style="fill:#ba9890; stroke:none;" d="M48 273L47 278C48.3182 276.074 48.6513 275.234 48 273z"/>
<path style="fill:#996b5d; stroke:none;" d="M49.6667 273.333C49.2222 273.778 50.2778 273.722 50.3333 273.667C50.7778 273.222 49.7222 273.278 49.6667 273.333z"/>
<path style="fill:#f4e3d9; stroke:none;" d="M341 273L342 274L341 273z"/>
<path style="fill:#996b5d; stroke:none;" d="M340 274L341 282C342.232 278.977 341.825 276.672 340 274z"/>
<path style="fill:#ba9890; stroke:none;" d="M341.333 274.667C341.278 274.722 341.222 275.778 341.667 275.333C341.722 275.278 341.778 274.222 341.333 274.667z"/>
<path style="fill:#ee8851; stroke:none;" d="M48 282L52 282C53.7838 276.263 57.492 279.367 62 280C57.8798 272.568 50.3693 274.668 48 282z"/>
<path style="fill:#ba9890; stroke:none;" d="M342 276L342 282C342.951 279.715 342.951 278.285 342 276z"/>
<path style="fill:#ee8851; stroke:none;" d="M46 278L45 282C46.6556 280.596 46.7511 280.046 46 278z"/>
<path style="fill:#f4e3d9; stroke:none;" d="M371 280L372 281L371 280M343 281L344 282L343 281z"/>
</g>
<text x="390" y="30" fill="#c9d1d9">
<tspan x="390" y="30">keshavag746@student</tspan> -———————————————————————————————————-—-
<tspan x="390" y="50" class="cc">. </tspan><tspan class="key">OS</tspan>:<tspan class="cc"> ........................................... </tspan><tspan class="value">Windows 11</tspan>
<tspan x="390" y="70" class="cc">. </tspan><tspan class="key">Uptime</tspan>:<tspan class="cc" id="age_data_dots"></tspan><tspan class="value" id="age_data">21 years, 10 months, 7 days</tspan>
<tspan x="390" y="90" class="cc">. </tspan><tspan class="key">Host</tspan>:<tspan class="cc"> ............................................. </tspan><tspan class="value">Student</tspan>
<tspan x="390" y="110" class="cc">. </tspan><tspan class="key">Kernel</tspan>:<tspan class="cc"> ...... </tspan><tspan class="value">B.Tech Student • SWE Intern at NeoCortex AI</tspan>
<tspan x="390" y="130" class="cc">. </tspan><tspan class="key">IDE</tspan>:<tspan class="cc"> ...................... </tspan><tspan class="value">VS Code, Anti-Gravity, PyCharm</tspan>
<tspan x="390" y="150" class="cc">. </tspan>
<tspan x="390" y="170" class="cc">. </tspan><tspan class="key">Languages</tspan>.<tspan class="key">Programming</tspan>:<tspan class="cc"> ..... </tspan><tspan class="value">Java, Python, TS, JS, C++, SQL</tspan>
<tspan x="390" y="190" class="cc">. </tspan><tspan class="key">Languages</tspan>.<tspan class="key">Computer</tspan>:<tspan class="cc"> ........ </tspan><tspan class="value">HTML, CSS, JSON, SQL, Markdown</tspan>
<tspan x="390" y="210" class="cc">. </tspan><tspan class="key">Languages</tspan>.<tspan class="key">Real</tspan>:<tspan class="cc"> ............................ </tspan><tspan class="value">English, Hindi</tspan>
<tspan x="390" y="230" class="cc">. </tspan>
<tspan x="390" y="250" class="cc">. </tspan><tspan class="key">Hobbies</tspan>.<tspan class="key">Software</tspan>:<tspan class="cc"> ...... </tspan><tspan class="value">Solving DSA, Web Apps, Open Source</tspan>
<tspan x="390" y="270" class="cc">. </tspan><tspan class="key">Hobbies</tspan>.<tspan class="key">Sports</tspan>:<tspan class="cc"> ......................... </tspan><tspan class="value">Cricket, Football</tspan>
<tspan x="390" y="310">- Contact</tspan> -——————————————————————————————————————————————-—-
<tspan x="390" y="330" class="cc">. </tspan><tspan class="key">Email</tspan>:<tspan class="cc"> ........................ </tspan><tspan class="value">keshavagrawal273@gmail.com</tspan>
<tspan x="390" y="350" class="cc">. </tspan><tspan class="key">GitHub</tspan>:<tspan class="cc"> ...................................... </tspan><tspan class="value">Keshavag746</tspan>
<tspan x="390" y="370" class="cc">. </tspan><tspan class="key">LinkedIn</tspan>:<tspan class="cc"> ....................... </tspan><tspan class="value">keshav-agrawal-02b4861b0</tspan>
<tspan x="390" y="390" class="cc">. </tspan><tspan class="key">Reddit</tspan>:<tspan class="cc"> .................................... </tspan><tspan class="value">NoSilver9698</tspan>
<tspan x="390" y="410" class="cc">. </tspan>
<tspan x="390" y="450">- GitHub Stats</tspan> -—————————————————————————————————————————-—-
<tspan x="390" y="470" class="cc">. </tspan><tspan class="key">Repos</tspan>:<tspan class="cc" id="repo_data_dots"> ..... </tspan><tspan class="value" id="repo_data">4</tspan> {<tspan class="key">Contributed</tspan>: <tspan class="value" id="contrib_data">4</tspan>} | <tspan class="key">Stars</tspan>:<tspan class="cc" id="star_data_dots"> ............. </tspan><tspan class="value" id="star_data">0</tspan>
<tspan x="390" y="490" class="cc">. </tspan><tspan class="key">Commmits</tspan>:<tspan class="cc" id="commit_data_dots"> .................... </tspan><tspan class="value" id="commit_data">18</tspan> | <tspan class="key">Followers</tspan>:<tspan class="cc" id="follower_data_dots"> ......... </tspan><tspan class="value" id="follower_data">0</tspan>
<tspan x="390" y="510" class="cc">. </tspan><tspan class="key">Lines of Code on GitHub</tspan>:<tspan class="cc" id="loc_data_dots"> ... </tspan><tspan class="value" id="loc_data">57,518</tspan> ( <tspan class="addColor" id="loc_add">58,543</tspan><tspan class="addColor">++</tspan>, <tspan id="loc_del_dots">. </tspan><tspan class="delColor" id="loc_del">1,025</tspan><tspan class="delColor">--</tspan> )
</text>
</svg>